<svg width="26" height="26" xmlns="http://www.w3.org/2000/svg">

 <g>
  <title>background</title>
  <rect fill="none" id="canvas_background" height="402" width="582" y="-1" x="-1"/>
 </g>
 <g>
  <title>Layer 1</title>
  <path id="svg_1" fill="#ffffff" d="m14.94629,1c-5.54297,0 -10.05274,4.50977 -10.05274,10.05322c0,2.50226 0.92481,4.78852 2.44281,6.54987l-6.11663,6.11664c-0.29297,0.29297 -0.29297,0.76757 0,1.06054c0.14648,0.14649 0.33789,0.21973 0.53027,0.21973s0.38379,-0.07324 0.53027,-0.21973l6.11658,-6.11657c1.76123,1.518 4.04742,2.44275 6.54944,2.44275c5.54394,0 10.05371,-4.50977 10.05371,-10.05323s-4.50977,-10.05322 -10.05371,-10.05322zm0,18.60645c-4.71582,0 -8.55274,-3.83692 -8.55274,-8.55323s3.83692,-8.55322 8.55274,-8.55322c4.7168,0 8.55371,3.83691 8.55371,8.55322s-3.83691,8.55323 -8.55371,8.55323z"/>
 </g>
</svg>